# xmcd CD database file
#
# Track frame offsets:
#	150
#	18469
#	35654
#	63024
#	90643
#	111793
#	138287
#	159475
#	182969
#	239801
#	263314
#	283977
#	308802
#
# Disc length: 4709 seconds
#
# Revision: 0
# Processed by: cddbd v1.5.2PL0 Copyright (c) Steve Scherf et al.
# Submitted via: CDex 1.51
#
DISCID=b212630d
DTITLE=Kenny Burrell - Kenny Burrell and Swingin'
DYEAR=1956
DGENRE=Jazz
TTITLE0=Get Happy
TTITLE1=But Not For Me
TTITLE2=Mexico Swing
TTITLE3=Moten swing
TTITLE4=Cheeta
TTITLE5=Now See How You Are
TTITLE6=Phinup
TTITLE7=How About You?
TTITLE8=I Never Knew
TTITLE9=My Heart Stood Still
TTITLE10=Beef Blue Stew
TTITLE11=If You Could See Me Now
TTITLE12=Swingin'
EXTD=YEAR: 1956
EXTT0=
EXTT1=
EXTT2=
EXTT3=
EXTT4=
EXTT5=
EXTT6=
EXTT7=
EXTT8=
EXTT9=
EXTT10=
EXTT11=
EXTT12=
PLAYORDER=
